<svg id="e3xmOZFYd541" xmlns="http://www.w3.org/2000/svg" xmlns:xlink="http://www.w3.org/1999/xlink"
  viewBox="0 0 831 552" shape-rendering="geometricPrecision" text-rendering="geometricPrecision">
  <style>
    <![CDATA[
    #e3xmOZFYd549_to {
      animation: e3xmOZFYd549_to__to 2000ms linear infinite normal forwards
    }

    @keyframes e3xmOZFYd549_to__to {
      0% {
        transform: translate(640.468979px, 195.004188px)
      }

      20% {
        transform: translate(640.468979px, 195.004188px)
      }

      75% {
        transform: translate(519.511185px, 121.066887px)
      }

      100% {
        transform: translate(519.511185px, 121.066887px)
      }
    }

    #e3xmOZFYd549_ts {
      animation: e3xmOZFYd549_ts__ts 2000ms linear infinite normal forwards
    }

    @keyframes e3xmOZFYd549_ts__ts {
      0% {
        transform: scale(0.683905, 0.683905)
      }

      20% {
        transform: scale(0.683905, 0.683905)
      }

      75% {
        transform: scale(1, 1)
      }

      100% {
        transform: scale(1, 1)
      }
    }

    #e3xmOZFYd5414_to {
      animation: e3xmOZFYd5414_to__to 2000ms linear infinite normal forwards
    }

    @keyframes e3xmOZFYd5414_to__to {
      0% {
        transform: translate(711.668889px, 16.690093px)
      }

      20% {
        transform: translate(711.668889px, 16.690093px);
        animation-timing-function: cubic-bezier(0.42, 0, 1, 1)
      }

      75% {
        transform: translate(541.011185px, 107.566643px)
      }

      100% {
        transform: translate(541.011185px, 107.566643px)
      }
    }

    #e3xmOZFYd5415_to {
      animation: e3xmOZFYd5415_to__to 2000ms linear infinite normal forwards
    }

    @keyframes e3xmOZFYd5415_to__to {
      0% {
        transform: translate(409.254881px, -250.529863px)
      }

      20% {
        transform: translate(409.254881px, -250.529863px);
        animation-timing-function: cubic-bezier(0.42, 0, 1, 1)
      }

      75% {
        transform: translate(440.956px, -271.518px)
      }

      100% {
        transform: translate(440.956px, -271.518px)
      }
    }

    #e3xmOZFYd5421_to {
      animation: e3xmOZFYd5421_to__to 2000ms linear infinite normal forwards
    }

    @keyframes e3xmOZFYd5421_to__to {
      0% {
        transform: translate(519.511185px, 121.066887px)
      }

      20% {
        transform: translate(519.511185px, 121.066887px)
      }

      75% {
        transform: translate(370.848201px, 64.928866px)
      }

      100% {
        transform: translate(370.848201px, 64.928866px)
      }
    }

    #e3xmOZFYd5421_ts {
      animation: e3xmOZFYd5421_ts__ts 2000ms linear infinite normal forwards
    }

    @keyframes e3xmOZFYd5421_ts__ts {
      0% {
        transform: scale(1, 1)
      }

      20% {
        transform: scale(1, 1)
      }

      75% {
        transform: scale(0.741367, 0.741367)
      }

      100% {
        transform: scale(0.741367, 0.741367)
      }
    }

    #e3xmOZFYd5426_to {
      animation: e3xmOZFYd5426_to__to 2000ms linear infinite normal forwards
    }

    @keyframes e3xmOZFYd5426_to__to {
      0% {
        transform: translate(541.011185px, 107.566643px)
      }

      20% {
        transform: translate(541.011185px, 107.566643px)
      }

      75% {
        transform: translate(731.740056px, 3.212526px)
      }

      100% {
        transform: translate(731.740056px, 3.212526px)
      }
    }

    #e3xmOZFYd5427_to {
      animation: e3xmOZFYd5427_to__to 2000ms linear infinite normal forwards
    }

    @keyframes e3xmOZFYd5427_to__to {
      0% {
        transform: translate(440.956px, -271.518px)
      }

      20% {
        transform: translate(440.956px, -271.518px)
      }

      75% {
        transform: translate(403.231038px, -244.395831px)
      }

      100% {
        transform: translate(403.231038px, -244.395831px)
      }
    }

    #e3xmOZFYd5437_to {
      animation: e3xmOZFYd5437_to__to 2000ms linear infinite normal forwards
    }

    @keyframes e3xmOZFYd5437_to__to {
      0% {
        transform: translate(509.686539px, 317.545594px)
      }

      50% {
        transform: translate(553.75859px, 291.504272px)
      }

      100% {
        transform: translate(509.69px, 317.55px)
      }
    }

    #e3xmOZFYd5442_to {
      animation: e3xmOZFYd5442_to__to 2000ms linear infinite normal forwards
    }

    @keyframes e3xmOZFYd5442_to__to {
      0% {
        transform: translate(526.107071px, 232.626915px);
        animation-timing-function: cubic-bezier(0, 0, 0.58, 1)
      }

      50% {
        transform: translate(402.999665px, 304.431435px)
      }

      100% {
        transform: translate(526.11px, 232.63px)
      }
    }

    #e3xmOZFYd5453_to {
      animation: e3xmOZFYd5453_to__to 2000ms linear infinite normal forwards
    }

    @keyframes e3xmOZFYd5453_to__to {
      0% {
        transform: translate(132.999964px, 356.499908px)
      }

      50% {
        transform: translate(59.21697px, 315.679993px)
      }

      100% {
        transform: translate(133px, 356.5px)
      }
    }
    ]]>
  </style>
  <path
    d="M3.51116,338.134L261.511,187.633c4.5-2.999,8.5-2.499,12.5,0l130.204,72.866c4.75,2.657,4.784,9.481.061,12.185L152.363,419.16c-8.5,4.5-16,5.5-27.5,0L3.55689,350.297c-4.72206-2.668-4.7476-9.46-.04573-12.163Z"
    fill="#2d2d2d" />
  <g mask="url(#e3xmOZFYd5457)">
    <g>
      <path
        d="M212.047,228.785c.244-.199.495-.394.697-.636.163-.196.351-.372.571-.501c1.713-1.006,3.255-.766,4.798.205l53.36,30.081c1.947,1.097,1.961,3.914.025,5.03l1.944-1c-3.484,1.858-6.558,2.271-11.27,0l-49.714-28.428c-1.794-1.021-1.934-3.505-.411-4.751Z"
        fill="#444" />
      <path
        d="M180.047,248.785c.244-.199.495-.394.697-.636v0c.163-.196.351-.372.571-.501c1.713-1.006,3.255-.766,4.798.205l53.36,30.081c1.947,1.097,1.961,3.914.025,5.03l1.944-1c-3.484,1.858-6.558,2.271-11.27,0l-49.714-28.428c-1.794-1.021-1.934-3.505-.411-4.751Z"
        fill="#373737" />
      <path
        d="M167.047,256.785c.244-.199.495-.394.697-.636v0c.163-.196.351-.372.571-.501c1.713-1.006,3.255-.766,4.798.205l53.36,30.081c1.947,1.097,1.961,3.914.025,5.03l1.944-1c-3.484,1.858-6.558,2.271-11.27,0l-49.714-28.428c-1.794-1.021-1.934-3.505-.411-4.751Z"
        fill="#373737" />
      <path
        d="M198.047,237.785c.244-.199.495-.394.697-.636v0c.163-.196.351-.372.571-.501c1.713-1.006,3.255-.766,4.798.205l41.36,23.081c1.947,1.097,1.961,3.914.025,5.03l1.944-1c-3.484,1.858-6.558,2.271-11.27,0l-37.714-21.428c-1.794-1.021-1.934-3.505-.411-4.751Z"
        fill="#444" />
      <path
        d="M144.047,269.785c.244-.199.495-.394.697-.636v0c.163-.196.351-.372.571-.501c1.713-1.006,3.255-.766,4.798.205l41.36,23.081c1.947,1.097,1.961,3.914.025,5.03l1.944-1c-3.484,1.858-6.558,2.271-11.27,0l-37.714-21.428c-1.794-1.021-1.934-3.505-.411-4.751Z"
        fill="#ff014d" />
      <path
        d="M198.81,320.69l87.114-51.025c3.601-2.417,6.803-2.014,10.004,0l104.204,58.707c3.802,2.14,3.829,7.638.049,9.816l-82.243,47.783c-6.803,3.626-12.805,4.431-22.009,0L198.847,330.49c-3.78-2.149-3.8-7.622-.037-9.8Z"
        fill="#444" />
      <g id="e3xmOZFYd5453_to" transform="translate(132.999964,356.499908)">
        <g transform="translate(-132.999964,-356.499908)">
          <path
            d="M-23.0723,301.143l59.7592-35.001c2.4705-1.658,4.6666-1.381,6.8626,0l71.4835,40.27c2.608,1.468,2.626,5.239.033,6.734L58.6483,345.922c-4.6666,2.487-8.7842,3.04-15.0977,0l-66.5978-38.057c-2.5925-1.474-2.6065-5.228-.0251-6.722Z"
            fill="#373737" />
          <path
            d="M63.9277,351.143l59.7593-35.001c2.47-1.658,4.666-1.381,6.862,0l71.484,40.27c2.608,1.468,2.626,5.239.033,6.734l-56.418,32.776c-4.666,2.487-8.784,3.04-15.097,0L63.9528,357.865c-2.5925-1.474-2.6065-5.228-.0251-6.722Z"
            fill="#373737" />
          <path
            d="M150.928,401.143l59.759-35.001c2.47-1.658,4.666-1.381,6.862,0l71.484,40.27c2.608,1.468,2.626,5.239.033,6.734l-56.418,32.776c-4.666,2.487-8.784,3.04-15.097,0l-66.598-38.057c-2.593-1.474-2.607-5.228-.025-6.722Z"
            fill="#373737" />
        </g>
      </g>
    </g>
    <mask id="e3xmOZFYd5457" mask-type="alpha" x="-150%" y="-150%" height="400%" width="400%">
      <path
        d="M3.51116,338.134L261.511,187.633c4.5-2.999,8.5-2.499,12.5,0l130.204,72.866c4.75,2.657,4.784,9.481.061,12.185L152.363,419.16c-8.5,4.5-16,5.5-27.5,0L3.55689,350.297c-4.72206-2.668-4.7476-9.46-.04573-12.163Z"
        fill="#2d2d2d" />
    </mask>
  </g>
</svg>