<svg id="e3xmOZFYd541" xmlns="http://www.w3.org/2000/svg" xmlns:xlink="http://www.w3.org/1999/xlink"
  viewBox="0 0 831 552" shape-rendering="geometricPrecision" text-rendering="geometricPrecision">
  <style>
    <![CDATA[
    #e3xmOZFYd549_to {
      animation: e3xmOZFYd549_to__to 2000ms linear infinite normal forwards
    }

    @keyframes e3xmOZFYd549_to__to {
      0% {
        transform: translate(640.468979px, 195.004188px)
      }

      20% {
        transform: translate(640.468979px, 195.004188px)
      }

      75% {
        transform: translate(519.511185px, 121.066887px)
      }

      100% {
        transform: translate(519.511185px, 121.066887px)
      }
    }

    #e3xmOZFYd549_ts {
      animation: e3xmOZFYd549_ts__ts 2000ms linear infinite normal forwards
    }

    @keyframes e3xmOZFYd549_ts__ts {
      0% {
        transform: scale(0.683905, 0.683905)
      }

      20% {
        transform: scale(0.683905, 0.683905)
      }

      75% {
        transform: scale(1, 1)
      }

      100% {
        transform: scale(1, 1)
      }
    }

    #e3xmOZFYd5414_to {
      animation: e3xmOZFYd5414_to__to 2000ms linear infinite normal forwards
    }

    @keyframes e3xmOZFYd5414_to__to {
      0% {
        transform: translate(711.668889px, 16.690093px)
      }

      20% {
        transform: translate(711.668889px, 16.690093px);
        animation-timing-function: cubic-bezier(0.42, 0, 1, 1)
      }

      75% {
        transform: translate(541.011185px, 107.566643px)
      }

      100% {
        transform: translate(541.011185px, 107.566643px)
      }
    }

    #e3xmOZFYd5415_to {
      animation: e3xmOZFYd5415_to__to 2000ms linear infinite normal forwards
    }

    @keyframes e3xmOZFYd5415_to__to {
      0% {
        transform: translate(409.254881px, -250.529863px)
      }

      20% {
        transform: translate(409.254881px, -250.529863px);
        animation-timing-function: cubic-bezier(0.42, 0, 1, 1)
      }

      75% {
        transform: translate(440.956px, -271.518px)
      }

      100% {
        transform: translate(440.956px, -271.518px)
      }
    }

    #e3xmOZFYd5421_to {
      animation: e3xmOZFYd5421_to__to 2000ms linear infinite normal forwards
    }

    @keyframes e3xmOZFYd5421_to__to {
      0% {
        transform: translate(519.511185px, 121.066887px)
      }

      20% {
        transform: translate(519.511185px, 121.066887px)
      }

      75% {
        transform: translate(370.848201px, 64.928866px)
      }

      100% {
        transform: translate(370.848201px, 64.928866px)
      }
    }

    #e3xmOZFYd5421_ts {
      animation: e3xmOZFYd5421_ts__ts 2000ms linear infinite normal forwards
    }

    @keyframes e3xmOZFYd5421_ts__ts {
      0% {
        transform: scale(1, 1)
      }

      20% {
        transform: scale(1, 1)
      }

      75% {
        transform: scale(0.741367, 0.741367)
      }

      100% {
        transform: scale(0.741367, 0.741367)
      }
    }

    #e3xmOZFYd5426_to {
      animation: e3xmOZFYd5426_to__to 2000ms linear infinite normal forwards
    }

    @keyframes e3xmOZFYd5426_to__to {
      0% {
        transform: translate(541.011185px, 107.566643px)
      }

      20% {
        transform: translate(541.011185px, 107.566643px)
      }

      75% {
        transform: translate(731.740056px, 3.212526px)
      }

      100% {
        transform: translate(731.740056px, 3.212526px)
      }
    }

    #e3xmOZFYd5427_to {
      animation: e3xmOZFYd5427_to__to 2000ms linear infinite normal forwards
    }

    @keyframes e3xmOZFYd5427_to__to {
      0% {
        transform: translate(440.956px, -271.518px)
      }

      20% {
        transform: translate(440.956px, -271.518px)
      }

      75% {
        transform: translate(403.231038px, -244.395831px)
      }

      100% {
        transform: translate(403.231038px, -244.395831px)
      }
    }

    #e3xmOZFYd5437_to {
      animation: e3xmOZFYd5437_to__to 2000ms linear infinite normal forwards
    }

    @keyframes e3xmOZFYd5437_to__to {
      0% {
        transform: translate(509.686539px, 317.545594px)
      }

      50% {
        transform: translate(553.75859px, 291.504272px)
      }

      100% {
        transform: translate(509.69px, 317.55px)
      }
    }

    #e3xmOZFYd5442_to {
      animation: e3xmOZFYd5442_to__to 2000ms linear infinite normal forwards
    }

    @keyframes e3xmOZFYd5442_to__to {
      0% {
        transform: translate(526.107071px, 232.626915px);
        animation-timing-function: cubic-bezier(0, 0, 0.58, 1)
      }

      50% {
        transform: translate(402.999665px, 304.431435px)
      }

      100% {
        transform: translate(526.11px, 232.63px)
      }
    }

    #e3xmOZFYd5453_to {
      animation: e3xmOZFYd5453_to__to 2000ms linear infinite normal forwards
    }

    @keyframes e3xmOZFYd5453_to__to {
      0% {
        transform: translate(132.999964px, 356.499908px)
      }

      50% {
        transform: translate(59.21697px, 315.679993px)
      }

      100% {
        transform: translate(133px, 356.5px)
      }
    }
    ]]>
  </style>

  <path
    d="M321.511,340.134l258-150.501c4.5-2.999,8.5-2.499,12.5,0l130.204,72.866c4.75,2.657,4.784,9.481.061,12.185L470.363,421.16c-8.5,4.5-16,5.5-27.5,0L321.557,352.297c-4.722-2.668-4.748-9.46-.046-12.163Z"
    fill="#2d2d2d" />

  <g mask="url(#e3xmOZFYd5443)">
    <g>
      <path
        d="M362.753,285.901L711.985,82.3618c6.091-4.0572,11.505-3.3809,16.92,0L905.15,180.907c6.43,3.593,6.476,12.821.082,16.478L564.24,395.483c-11.506,6.085-21.658,7.438-37.224,0L362.815,302.351c-6.392-3.608-6.427-12.794-.062-16.45Z"
        fill="#444" />
      <g id="e3xmOZFYd5437_to" transform="translate(509.686539,317.545594)">
        <g transform="translate(-509.686538,-317.545593)">
          <path
            d="M515.887,256.134l65.164-38.045c1.137-.758,2.147-.632,3.158,0l87.403,49.37c1.2.672,1.208,2.397.015,3.08L608,307.567c-2.147,1.137-4.041,1.39-6.946,0l-85.156-48.358c-1.192-.675-1.199-2.392-.011-3.075Z"
            transform="translate(32.928083-15.146125)" fill="#4e4e4e" />
          <path
            d="M437.887,302.567l65.164-38.045c1.137-.758,2.147-.632,3.158,0l87.403,49.37c1.2.672,1.208,2.397.015,3.081L530,354c-2.147,1.138-4.041,1.39-6.946,0l-85.156-48.358c-1.192-.674-1.199-2.391-.011-3.075Z"
            transform="translate(32.928083-15.146122)" fill="#4e4e4e" />
          <path
            d="M359.887,349l65.164-38.044c1.137-.759,2.147-.632,3.158,0l87.403,49.37c1.2.671,1.208,2.396.015,3.08L452,400.433c-2.147,1.138-4.041,1.391-6.946,0l-85.156-48.358c-1.192-.674-1.199-2.391-.011-3.075Z"
            transform="translate(32.928083-15.146123)" fill="#4e4e4e" />
          <path
            d="M281.887,395.434l65.164-38.045c1.137-.758,2.147-.632,3.158,0l87.403,49.37c1.2.671,1.208,2.396.015,3.08L374,446.866c-2.147,1.138-4.041,1.391-6.946,0l-85.156-48.358c-1.192-.674-1.199-2.391-.011-3.074Z"
            transform="translate(32.928082-15.146118)" fill="#4e4e4e" />
        </g>
      </g>
      <g id="e3xmOZFYd5442_to" transform="translate(526.107071,232.626915)">
        <path
          d="M485.387,254.608l79.071-45.815c.496-.328.938-.274,1.379,0l.54.426c.294.231.676.413.796.768.112.327-.004.719-.347.914l-78.399,45.374c-.898.472-1.695.593-2.876.073-.097-.043-.159-.141-.159-.247c0-.099-.056-.188-.131-.253-.386-.334-.344-.972.126-1.24Z"
          transform="translate(-526.107071,-232.626915)" fill="#ff014d" />
      </g>
    </g>
    <mask id="e3xmOZFYd5443" mask-type="alpha" x="-150%" y="-150%" height="400%" width="400%">
      <path
        d="M321.511,340.134l258-150.501c4.5-2.999,8.5-2.499,12.5,0l130.204,72.866c4.75,2.657,4.784,9.481.061,12.185L470.363,421.16c-8.5,4.5-16,5.5-27.5,0L321.557,352.297c-4.722-2.668-4.748-9.46-.046-12.163Z"
        fill="#2d2d2d" />
    </mask>
  </g>

</svg>