<svg id="e3xmOZFYd541" xmlns="http://www.w3.org/2000/svg" xmlns:xlink="http://www.w3.org/1999/xlink"
  viewBox="0 0 831 552" shape-rendering="geometricPrecision" text-rendering="geometricPrecision">
  <style>
    <![CDATA[
    #e3xmOZFYd549_to {
      animation: e3xmOZFYd549_to__to 2000ms linear infinite normal forwards
    }

    @keyframes e3xmOZFYd549_to__to {
      0% {
        transform: translate(640.468979px, 195.004188px)
      }

      20% {
        transform: translate(640.468979px, 195.004188px)
      }

      75% {
        transform: translate(519.511185px, 121.066887px)
      }

      100% {
        transform: translate(519.511185px, 121.066887px)
      }
    }

    #e3xmOZFYd549_ts {
      animation: e3xmOZFYd549_ts__ts 2000ms linear infinite normal forwards
    }

    @keyframes e3xmOZFYd549_ts__ts {
      0% {
        transform: scale(0.683905, 0.683905)
      }

      20% {
        transform: scale(0.683905, 0.683905)
      }

      75% {
        transform: scale(1, 1)
      }

      100% {
        transform: scale(1, 1)
      }
    }

    #e3xmOZFYd5414_to {
      animation: e3xmOZFYd5414_to__to 2000ms linear infinite normal forwards
    }

    @keyframes e3xmOZFYd5414_to__to {
      0% {
        transform: translate(711.668889px, 16.690093px)
      }

      20% {
        transform: translate(711.668889px, 16.690093px);
        animation-timing-function: cubic-bezier(0.42, 0, 1, 1)
      }

      75% {
        transform: translate(541.011185px, 107.566643px)
      }

      100% {
        transform: translate(541.011185px, 107.566643px)
      }
    }

    #e3xmOZFYd5415_to {
      animation: e3xmOZFYd5415_to__to 2000ms linear infinite normal forwards
    }

    @keyframes e3xmOZFYd5415_to__to {
      0% {
        transform: translate(409.254881px, -250.529863px)
      }

      20% {
        transform: translate(409.254881px, -250.529863px);
        animation-timing-function: cubic-bezier(0.42, 0, 1, 1)
      }

      75% {
        transform: translate(440.956px, -271.518px)
      }

      100% {
        transform: translate(440.956px, -271.518px)
      }
    }

    #e3xmOZFYd5421_to {
      animation: e3xmOZFYd5421_to__to 2000ms linear infinite normal forwards
    }

    @keyframes e3xmOZFYd5421_to__to {
      0% {
        transform: translate(519.511185px, 121.066887px)
      }

      20% {
        transform: translate(519.511185px, 121.066887px)
      }

      75% {
        transform: translate(370.848201px, 64.928866px)
      }

      100% {
        transform: translate(370.848201px, 64.928866px)
      }
    }

    #e3xmOZFYd5421_ts {
      animation: e3xmOZFYd5421_ts__ts 2000ms linear infinite normal forwards
    }

    @keyframes e3xmOZFYd5421_ts__ts {
      0% {
        transform: scale(1, 1)
      }

      20% {
        transform: scale(1, 1)
      }

      75% {
        transform: scale(0.741367, 0.741367)
      }

      100% {
        transform: scale(0.741367, 0.741367)
      }
    }

    #e3xmOZFYd5426_to {
      animation: e3xmOZFYd5426_to__to 2000ms linear infinite normal forwards
    }

    @keyframes e3xmOZFYd5426_to__to {
      0% {
        transform: translate(541.011185px, 107.566643px)
      }

      20% {
        transform: translate(541.011185px, 107.566643px)
      }

      75% {
        transform: translate(731.740056px, 3.212526px)
      }

      100% {
        transform: translate(731.740056px, 3.212526px)
      }
    }

    #e3xmOZFYd5427_to {
      animation: e3xmOZFYd5427_to__to 2000ms linear infinite normal forwards
    }

    @keyframes e3xmOZFYd5427_to__to {
      0% {
        transform: translate(440.956px, -271.518px)
      }

      20% {
        transform: translate(440.956px, -271.518px)
      }

      75% {
        transform: translate(403.231038px, -244.395831px)
      }

      100% {
        transform: translate(403.231038px, -244.395831px)
      }
    }

    #e3xmOZFYd5437_to {
      animation: e3xmOZFYd5437_to__to 2000ms linear infinite normal forwards
    }

    @keyframes e3xmOZFYd5437_to__to {
      0% {
        transform: translate(509.686539px, 317.545594px)
      }

      50% {
        transform: translate(553.75859px, 291.504272px)
      }

      100% {
        transform: translate(509.69px, 317.55px)
      }
    }

    #e3xmOZFYd5442_to {
      animation: e3xmOZFYd5442_to__to 2000ms linear infinite normal forwards
    }

    @keyframes e3xmOZFYd5442_to__to {
      0% {
        transform: translate(526.107071px, 232.626915px);
        animation-timing-function: cubic-bezier(0, 0, 0.58, 1)
      }

      50% {
        transform: translate(402.999665px, 304.431435px)
      }

      100% {
        transform: translate(526.11px, 232.63px)
      }
    }

    #e3xmOZFYd5453_to {
      animation: e3xmOZFYd5453_to__to 2000ms linear infinite normal forwards
    }

    @keyframes e3xmOZFYd5453_to__to {
      0% {
        transform: translate(132.999964px, 356.499908px)
      }

      50% {
        transform: translate(59.21697px, 315.679993px)
      }

      100% {
        transform: translate(133px, 356.5px)
      }
    }
    ]]>
  </style>
  <path
    d="M294.511,170.567l258-150.5003c4.5-3,8.5-2.4999,12.5,0L695.215,92.9326c4.75,2.6567,4.784,9.4804.061,12.1844L443.363,251.593c-8.5,4.5-16,5.5-27.5,0L294.557,182.73c-4.722-2.668-4.748-9.46-.046-12.163Z"
    fill="#2d2d2d" />
  <g mask="url(#e3xmOZFYd5432)">
    <g>
      <g id="e3xmOZFYd549_to" transform="translate(640.468979,195.004188)">
        <g id="e3xmOZFYd549_ts" transform="scale(0.683905,0.683905)">
          <g transform="translate(-519.511185,-121.066887)" mask="url(#e3xmOZFYd5418)">
            <g>
              <path
                d="M348.577,161.412L537.111,51.0819c3.289-2.1993,6.212-1.8327,9.135-.0001l95.147,53.4172c3.471,1.948,3.496,6.95.044,8.932L457.351,220.811c-6.212,3.299-11.692,4.032-20.096,0L348.61,170.328c-3.45-1.955-3.469-6.935-.033-8.916Z"
                fill="#444" />
              <g mask="url(#e3xmOZFYd5416)">
                <g>
                  <g id="e3xmOZFYd5414_to" transform="translate(711.668889,16.690093)">
                    <path
                      d="M391.629,132.983L583.959,20.1167c3.355-2.2498,6.337-1.8748,9.318-.0001L690.34,74.7618c3.541,1.9923,3.567,7.1096.045,9.1375L502.593,193.747c-6.337,3.375-11.928,4.125-20.501,0l-90.429-51.642c-3.52-2.001-3.54-7.095-.034-9.122Z"
                      transform="translate(-541.011185,-107.566643)" fill="#4e4e4e" />
                  </g>
                  <g id="e3xmOZFYd5415_to" transform="translate(409.254881,-250.529863)">
                    <ellipse rx="8.67035" ry="10"
                      transform="rotate(69.996789) scale(1.000001,1.000001) translate(414.374,179.135)"
                      fill="#ff014d" />
                  </g>
                </g>
                <mask id="e3xmOZFYd5416" mask-type="alpha" x="-150%" y="-150%" height="400%" width="400%">
                  <path
                    d="M348.577,161.412L537.111,51.0819c3.289-2.1993,6.212-1.8327,9.135-.0001l95.147,53.4172c3.471,1.948,3.496,6.95.044,8.932L457.351,220.811c-6.212,3.299-11.692,4.032-20.096,0L348.61,170.328c-3.45-1.955-3.469-6.935-.033-8.916Z"
                    fill="#444" />
                </mask>
              </g>
            </g>
            <mask id="e3xmOZFYd5418" mask-type="alpha" x="-150%" y="-150%" height="400%" width="400%">
              <path
                d="M294.511,170.567l258-150.5003c4.5-3,8.5-2.4999,12.5,0L695.215,92.9326c4.75,2.6567,4.784,9.4804.061,12.1844L443.363,251.593c-8.5,4.5-16,5.5-27.5,0L294.557,182.73c-4.722-2.668-4.748-9.46-.046-12.163Z"
                fill="#2d2d2d" />
            </mask>
          </g>
        </g>
      </g>
    </g>
    <g>
      <g id="e3xmOZFYd5421_to" transform="translate(519.511185,121.066887)">
        <g id="e3xmOZFYd5421_ts" transform="scale(1,1)">
          <g transform="translate(-519.511185,-121.066887)" mask="url(#e3xmOZFYd5430)">
            <g>
              <path
                d="M348.577,161.412L537.111,51.0819c3.289-2.1993,6.212-1.8327,9.135-.0001l95.147,53.4172c3.471,1.948,3.496,6.95.044,8.932L457.351,220.811c-6.212,3.299-11.692,4.032-20.096,0L348.61,170.328c-3.45-1.955-3.469-6.935-.033-8.916Z"
                fill="#444" />
              <g mask="url(#e3xmOZFYd5428)">
                <g>
                  <g id="e3xmOZFYd5426_to" transform="translate(541.011185,107.566643)">
                    <path
                      d="M391.629,132.983L583.959,20.1167c3.355-2.2498,6.337-1.8748,9.318-.0001L690.34,74.7618c3.541,1.9923,3.567,7.1096.045,9.1375L502.593,193.747c-6.337,3.375-11.928,4.125-20.501,0l-90.429-51.642c-3.52-2.001-3.54-7.095-.034-9.122Z"
                      transform="translate(-541.011185,-107.566643)" fill="#4e4e4e" />
                  </g>
                  <g id="e3xmOZFYd5427_to" transform="translate(440.956,-271.518)">
                    <ellipse rx="8.67035" ry="10"
                      transform="rotate(69.996789) scale(1.000001,1.000001) translate(414.374,179.135)"
                      fill="#ff014d" />
                  </g>
                </g>
                <mask id="e3xmOZFYd5428" mask-type="alpha" x="-150%" y="-150%" height="400%" width="400%">
                  <path
                    d="M348.577,161.412L537.111,51.0819c3.289-2.1993,6.212-1.8327,9.135-.0001l95.147,53.4172c3.471,1.948,3.496,6.95.044,8.932L457.351,220.811c-6.212,3.299-11.692,4.032-20.096,0L348.61,170.328c-3.45-1.955-3.469-6.935-.033-8.916Z"
                    fill="#444" />
                </mask>
              </g>
            </g>
            <mask id="e3xmOZFYd5430" mask-type="alpha" x="-150%" y="-150%" height="400%" width="400%">
              <path
                d="M294.511,170.567l258-150.5003c4.5-3,8.5-2.4999,12.5,0L695.215,92.9326c4.75,2.6567,4.784,9.4804.061,12.1844L443.363,251.593c-8.5,4.5-16,5.5-27.5,0L294.557,182.73c-4.722-2.668-4.748-9.46-.046-12.163Z"
                fill="#2d2d2d" />
            </mask>
          </g>
        </g>
      </g>
    </g>
    <mask id="e3xmOZFYd5432" mask-type="alpha" x="-150%" y="-150%" height="400%" width="400%">
      <path
        d="M294.511,170.567l258-150.5003c4.5-3,8.5-2.4999,12.5,0L695.215,92.9326c4.75,2.6567,4.784,9.4804.061,12.1844L443.363,251.593c-8.5,4.5-16,5.5-27.5,0L294.557,182.73c-4.722-2.668-4.748-9.46-.046-12.163Z"
        fill="#2d2d2d" />
    </mask>
  </g>
</svg>